<svg version="1.0" xmlns="http://www.w3.org/2000/svg" width="741.333" height="741.333" viewBox="0 0 556 556"><path d="M201.8 9.5c-.3.3-8.8.8-18.9 1-22.2.7-25.6 1.1-27.7 3.2-1.9 1.8-1.9 5.4-.6 31.3.4 8 .6 16.7.5 19.5-.4 10.9-.5 19.2-.2 23.5.1 2.5-.1 13.9-.5 25.5-.7 19.4-.8 53.7-.4 81.5.1 6.3.2 14.4.2 18-.1 3.6-.1 20.7-.1 38 .1 40.4-1 109.7-1.7 117.5-.7 6.7-.6 17.6.1 23 1.5 12.2 1.9 22.1 2 47.5 0 15.7-.4 31.4-.9 35-1.1 7.8-1.6 23.4-.9 26.1.7 2.5 2.2 2.4 5.4-.4 5.6-4.8 6.2-6.9 6.4-20.5.2-11.6.6-16.3 2-23.2.7-3 .7-28.7.1-31.5-.2-1.1-.7-5.5-1.1-9.8-.3-4.3-.8-8.6-.9-9.5-.2-.9-.7-4.4-1-7.7-.4-3.3-.9-7.8-1.2-10-1.3-10.9-1.1-20.3.6-26.7 1.6-6.1 1.7-12 1.3-68.5-.5-66.5-.5-76.5-.2-149.8.2-44.9-.1-58.8-1.7-87.5-.3-6.3-.7-13.3-.8-15.5-.3-5.9 1.2-12 3.6-14.1 1.8-1.7 4.2-1.9 26.2-2 31-.2 50.2-1.4 60.6-4 6-1.5 7.9-1.5 10.1-.3 1.7.9 8.1 1.3 20.9 1.5 10.2.1 22.8.5 28 .9 14.6 1.1 16.3 1.2 19.1.4 1.5-.4 3.2-.2 3.7.3.6.6 5.7 1.2 11.4 1.4 5.7.2 15.3.6 21.3.9 6.1.3 34.2.7 62.5.9l51.5.3 6.4-2.4 6.5-2.4 5 1.9c3.1 1.1 7.2 1.8 10.6 1.7 8.4-.3 11.8 1.3 11 5-.3 1.3 0 10.9.5 16 .7 7 .6 17.8-.1 24.5-.4 3.6-.6 10.3-.5 15 .7 23.6-.4 128.1-1.5 148-.6 11.6-.6 6.7.1 38 .3 14.5.7 27.6 1 29 1.4 7.5 1.8 16.8 2.2 51 .7 52 .5 92.1-.6 98.6-.4 3-.7 13.3-.6 22.9.1 9.6-.2 18-.5 18.6-1.3 2-7.7 2.5-34 2.3-47.8-.4-97.4-.4-101.7 0-2.3.2-5.4 1.1-6.8 2-2.5 1.6-2.8 1.6-5.1.1-3.5-2.3-43.7-2.7-47.8-.5-2.3 1.2-3.4 1.2-6.9.1-6.4-2-21.3-1.6-28 .7-6.3 2.3-17.7 9.6-17.7 11.4 0 .2 3.7.5 8.3.6 8.2.2 11.1-.3 17.7-3.1 3.4-1.5 3.8-1.4 6.9.6 2.8 1.7 5.1 2.1 13.5 2.2 5.6.1 11.6-.3 13.5-.8 1.9-.5 7.6-1 12.7-1 8-.2 9.7-.5 12.4-2.5l3.2-2.4 2.7 2.6c2.6 2.5 5.5 3.4 6.4 1.8.5-.7 113.3-.7 121.1.1 3.4.3 8.9-.3 14.5-1.6.8-.2 2.6.2 4 .9 1.6.8 3 1 4.1.4 1-.5 1.9-.8 2.1-.6 1.2 1.1 10.4 1.3 12.6.3 2.5-1.1 2.5-1.4 2-7.7-.5-4.7-.1-8.4 1.2-13.3 1-3.7 1.4-6.7.9-6.7-.5 0-.7-.4-.4-.9.4-.5.8-9.1 1-19 .3-14 0-18.5-1-19.8-1.7-2.3-1.8-6.7 0-10.1.7-1.5 1.2-3.6 1-4.7-.6-4.1-.6-14.1.1-16.8.6-2.1.2-3.6-1.3-5.6-1.5-2-1.7-3.2-1-4.5 1.4-2.4 1.4-10.6.5-58.1-1.2-55.4-1-78.3.9-143.5.4-13.5.6-26.5.4-29-.5-7.3-.2-122.5.3-134.5.5-12.9-.6-16.9-4.8-17.7-1.4-.3-21.8-.3-45.3-.1-61.6.8-128.4.8-138.1.1-8-.6-12 0-18.5 2.7-1.5.7-1.7.5-1.2-1.3 1.1-3.5 1.9-3.4-31.5-4.6-11.8-.4-15.1.3-21.2 4.6-1.7 1.3-2.9.5-4-2.6-.2-.5-14.5-1-31.9-1.2-17.5-.1-32.1-.5-32.6-.8-.5-.3-1.1-.3-1.4-.1z"/><path d="M330.5 130.6c-5.5 2.5-10.7 4.8-11.5 5.2-6.5 2.7-18.8 13.8-23.3 20.9-3 4.8-6.7 15-7.4 20.8-1.9 14.4 1.5 26.7 10.7 38.9 3.4 4.5 4.8 5.6 7.1 5.6 1.5 0 3.1-.5 3.4-1 1.5-2.4 2.2-.7.8 1.8-.9 1.6-1.4 3.5-1.1 4.3.9 2.3 13.5 9.3 24.1 13.4 5.4 2 10.5 4.4 11.3 5.2 4.9 4.9-1.8 12.2-26.3 28.2-20 13.2-22.3 16.1-20 25.7 1 4 8.3 11.4 15.1 15.3 3 1.7 7.2 4.8 9.3 6.9 2.2 2 5.6 5.1 7.7 6.9 6.1 5.3 5.5 8.3-4.3 24.7-4.5 7.4-8.6 13.8-9.1 14.1-.6.4-.3 1.6.6 3 1.4 2.2 1.4 2.6.1 4-.9.8-1.8 1.5-2.2 1.5-1.5 0-9.5 6.9-11.6 10-1.3 1.9-2.6 3.7-2.9 4-.3.3-3.5 4.3-7.2 9-3.6 4.7-7.4 9.5-8.4 10.6-1.1 1.2-3.5 4.1-5.6 6.5-6 7.3-21 24-24.4 27.3-22.8 22-36.4 33-62.4 50.3-21.1 14-18.9 13-32.5 13.7-6.6.4-13.8.9-16 1.2-15.2 2-29.8.5-40-4.1-10.2-4.7-14.3-4.4-24 2-3.1 2.1-5.9 3.4-6.3 3-.4-.3.2-1.3 1.2-2.1 1.1-.8 1.5-1.4.8-1.4-.6 0 .7-1.8 2.8-3.9 6.3-6.2 5.9-7.5-3.8-16.9-4.2-4-8.4-7.8-9.3-8.3-2.9-1.5-6.5-1-9.3 1.2-4.2 3.3-4.3 1.4-.3-3.7s4-5-.7-14.3c-1.4-2.7-3.5-5.6-4.7-6.5-1.2-.8-1.9-2.1-1.6-2.9.3-.8-.9-5.5-2.6-10.3-4.2-12.1-4.4-21.8-.5-28.5 2.5-4.2 13-12.9 15.8-12.9.6 0 3.3-2.2 6-4.9 5.6-5.6 6.8-9.2 6.1-18.9-.2-3-5.4-10-9.2-12.7-2-1.3-6.2-3-9.3-3.9-6.4-1.6-17.8-1.5-19.9.3-.8.6-1.6.9-1.9.6-.2-.3-2.5 1.5-4.9 3.9-6.6 6.5-9 15.6-9.3 34.6-.1 4.7.2 11 .6 14 1.5 12.2 1.9 15 2.3 16.2.2.7.7 2.6.9 4.3.6 3.4 5.2 18.5 7.1 23 .7 1.6 2.9 7.5 5 13 4.4 11.5 5.1 12.7 7.9 12.4 3.4-.2 3.6 0 2.6 2.6-1.3 3.5.5 7.5 7.4 16.7 10.8 14.4 29.8 29.8 47.3 38.5 15 7.4 20.8 7.7 34.6 1.8 1.7-.7 1.8-.6.6 1.3-.7 1.1-2.4 2.6-3.7 3.2-3.3 1.5-2.3 2.2 4 2.7 12.6 1.1 29 .5 37.2-1.3 1.2-.3 3.5-.8 5.1-1.1 4.9-.8 17.5-5.3 24.5-8.6 5.8-2.7 21.7-12.2 23-13.7.3-.3 2.5-2.1 5-4 11.1-8.5 25.8-23.3 35.5-35.5 2.2-2.8 4.2-5.2 4.6-5.5 2.1-1.9 23.9-32.6 23.9-33.7 0-.4.8-1.6 1.8-2.7 1.5-1.8 1.3-1.8-2.3.4-7.6 4.4-9 5-12.5 4.9-3.3 0-3.1-.2 3.7-3.5 11.2-5.4 16.8-11.3 28-29.2 10.4-16.9 11.7-18.8 23.7-34.8 15.9-21.3 32.3-34.6 45.5-36.9 1.9-.3 3.8-.8 4.2-1.1.5-.3 4.3-.6 8.5-.9 4.2-.2 8-.7 8.3-1.2 1.2-1.7 8.2-5.5 8.9-4.8.4.4-.6 1.7-2.1 2.9-3.5 2.8-2.8 5 1.7 5.3 1.8.1 5.4 1.1 8 2.3 5.9 2.8 10.5 2.3 16.6-1.7 5.2-3.5 16.3-9.6 30.5-16.8 8.3-4.2 10-5.4 10.2-7.5.3-2.9-2.3-6.4-5.6-7.5-1.3-.4-2-1.2-1.7-2 .8-2.1-1.9-4.8-5-4.9-2.2-.1-3-.6-3.2-2.3-.4-2.4-8.2-6.1-18.7-8.8-11.5-3-37-2.7-40.8.6-.7.5-6.4 4.3-12.7 8.5-6.3 4.1-14.1 9.2-17.4 11.4-3.2 2.2-6.3 3.7-6.7 3.4-1.4-.8 0-2.4 1.9-2.4 2 0 19.1-12.6 24.1-17.7 2.6-2.7 3.1-3.7 2-4.3-.7-.5-7-.9-13.9-1-6.9 0-15.4-.1-19-.2-5.3-.1-7.7.5-13.5 3.2-3.8 1.8-7.4 3.3-8 3.5-.5.1-2.3.7-3.9 1.4-5.5 2.2-3.7.3 4.2-4.4 4.6-2.7 7.9-5.4 7.9-6.3 0-.9-1.4-2.9-3-4.6-3.1-3.3-4.7-6.5-4.7-9.5 0-2.2 4.1-8.4 9.5-14.3 9.9-10.9 12.2-16.1 8.5-19.8-1.5-1.5-2.5-1.7-5.1-1l-3.2.9 2.2-2.3c2.5-2.7 2.1-4.4-2.4-9.7-1.1-1.4-3.3-6.4-4.8-11.1-1.5-4.8-3.3-9.1-4.1-9.7-.9-.8-2.9-.4-7.7 1.4-3.5 1.4-6.8 2.3-7.4 2.1-.5-.2-.4-.5.4-.5 2.3-.1 10.2-7.1 11.2-10 1.3-3.3 1.3-4.2.4-11.6-.5-3.3-.8-10.4-.8-15.7.1-12.3-.5-12.7-11.7-6.3-14.6 8.3-17.8 9.9-15 7.5 3.5-2.9 11.2-8 19.6-12.9 7.6-4.5 8.4-5.5 10.9-14.6 1-3.3 3-8.5 4.6-11.5 2.5-4.8 2.7-5.7 1.5-7.5-2.1-3.2-5.5-2.8-16.1 2.1zm8.5 151.9c0 .8-6.3 4.5-7.5 4.5-1.4-.1 4.7-5 6.3-5 .6 0 1.2.2 1.2.5zM458.5 308c.3.6-.1 1.3-1 1.6-1.9.8-3 0-2-1.5.8-1.4 2.2-1.4 3-.1zm-10.1 6.1c-1.2 1.3-2 1.6-2.2.9-.3-.7.2-1.6.9-2.1 2.5-1.6 3.2-.9 1.3 1.2zM431 325.8c0 1.1-8.8 5.7-9.6 5-.3-.4 1.6-1.8 4.3-3.2 5.6-2.9 5.3-2.8 5.3-1.8zm-11.6 7.7c-.4.8-1.3 1.5-2.1 1.5-1.3 0-1.3-.3-.3-1.5.7-.8 1.6-1.5 2.1-1.5s.6.7.3 1.5zm-88.3 32.7c-1.3 1-2.7 1.8-3.2 1.8-1.6 0-.9-1.9 1.3-3.4 3-2.1 4.7-.7 1.9 1.6zM278.5 449c.7 1.2-4 2.4-5.6 1.4-.9-.5-.7-1 .7-1.5 2.7-1.1 4.2-1.1 4.9.1zm-112.8 62.6c-.3.4-1.4.3-2.4 0-1.5-.6-1.5-.8-.3-1.6 1.6-1 3.9.4 2.7 1.6zm-4.2 1.4c-.3.5-1.6 1-2.8 1-1.8 0-1.9-.2-.7-1 2-1.3 4.3-1.3 3.5 0zm53.5 7.4c0 .8-9.5 6.3-12 6.9l-2.5.6 2.5-2c3.8-3.1 12-6.8 12-5.5z"/><path d="M398 126.9c-1.3.9-1.1 1.8 1.5 6.6 1.6 3.1 4.2 6.7 5.7 8.2l2.7 2.5 7.5-4c4.1-2.2 7.7-3.8 8-3.5.7.7-5.8 5.3-7.3 5.3-.6 0-1.1.4-1.1 1 0 .5-.6 1-1.3 1-.8 0-2.2.9-3.1 1.9-1.7 1.9-1.7 2.2.3 7.8 3.3 9.4 4.7 17.6 5.5 31.8.2 4.2 2.2 4.2 10.5 0 3.9-1.9 7.1-3.3 7.1-3 0 .3.8.2 1.8-.3.9-.5 3.3-1.2 5.2-1.6 3.4-.6 3.4-.6 1.3.9-1.2.9-6.8 3.5-12.4 6-5.6 2.4-11 5.2-12 6.2s-2.1 3.8-2.4 6.3c-.8 5-1.3 7.5-1.5 7.5-.1 0-.3 1.1-.5 2.5-.8 4.5-1 5.5-1.8 6.7-.5.7-.6 1.3-.3 1.3.7 0-3.9 12-6.4 17-2.5 4.9-1.5 5.3 7.9 2.9 21.2-5.4 36.5-20.6 42.2-41.9 1.2-4.7 1.6-9.6 1.4-17.5-.2-9.4-.6-11.6-2.6-15.5-2.1-3.9-2.4-5.7-2.3-13.5.1-5 .4-10 .7-11.2.3-1.3.2-2.5-.2-2.8-1.2-.7-6.3-1.3-15.4-2-4.7-.3-9.4-1.3-11.5-2.4-7-3.5-24.2-6.2-27.2-4.2zm76 203.5c-2.5 1.3-5.8 3.1-7.5 4-1.6.9-3.5 1.6-4.2 1.6-.6 0-1.3.4-1.5.8-.1.5-5 3.2-10.6 6.1-9 4.5-13.5 6.8-15.1 7.9-.3.1 1.6 2.4 4.1 5 5 5.1 8.7 12.2 8.3 15.8-.2 2 0 2.1 2.4 1.1 1.4-.6 3.4-1.7 4.3-2.5.9-.8 2.3-1.2 3-1 1.3.5-6.2 5.8-8.2 5.8-.5 0-1 1-1.1 2.2-.2 5.5-4 17.8-6.4 20.8-.7.8-1.6 2.5-2 3.8l-.7 2.3 3.4-1.7c11.7-6 24-17.6 30.6-28.9 7-12 10.3-23 10.5-34.6.1-7.6-1.1-11-3.7-10.8-.6 0-3.1 1-5.6 2.3zm1 9.4c0 .4-2.8 2.6-6.2 4.8-8.6 5.6-8.9 5.7-8.2 4.2.4-1 13.1-9.8 14.1-9.8.2 0 .3.4.3.8z"/></svg>