<svg xmlns="http://www.w3.org/2000/svg"><defs><font id="bastardussansregular" horiz-adv-x="1138"><font-face units-per-em="2048" ascent="1638" descent="-410"/><glyph horiz-adv-x="0"/><glyph horiz-adv-x="682"/><glyph horiz-adv-x="464" d="M-23 1423q23-125 89.5-181t164.5-56 165 56 89 181h-59q-29-66-78-90t-117-24-115.5 24.5T37 1423h-60z"/><glyph horiz-adv-x="454" d="M150 1235h151v172H150v-172z"/><glyph horiz-adv-x="458" d="M33 1333q0-82 57-139t139-57q39 0 75 15t62.5 42 42 62.5T424 1333t-15.5 77-42 62.5-62.5 42-75 15.5q-82 0-139-57.5T33 1333zm76 0q0 51 34.5 86t85.5 35q49 0 84-35t35-86-34.5-86-84.5-35q-51 0-85.5 35t-34.5 86z"/><glyph horiz-adv-x="468" d="M104 1159l95-2 256 295-160 2zm347 0l94-2 256 295-160 2z"/><glyph horiz-adv-x="458" d="M162-274q0-70 55-113t129-43q66 0 116 29.5T549-299l-29 18q-33-47-63.5-60T393-354q-43 0-72.5 24.5T291-248q0 31 16.5 66t42 68.5 56 62T467 0h-59q-41-18-84-49t-79-68-59.5-78-23.5-79z"/><glyph horiz-adv-x="466" d="M-45 1452l195-295h163l193 295h-92l-183-207-184 207h-92z"/><glyph horiz-adv-x="454" d="M162 0h127v1133H162V0z"/><glyph horiz-adv-x="342" d="M-309-45h114l840 1522H530z"/><glyph horiz-adv-x="1136" d="M39 1022h211V0h129v1022h235v111H379v84q0 111 33.5 172t128.5 61q39 0 60.5-7t37.5-16l10 111q-10 6-37.5 14.5T535 1561q-154 0-219.5-89.5T250 1192v-59H39v-111zm784 387h131v174H823v-174zM825 0h127v1133H825V0z"/><glyph horiz-adv-x="1136" d="M39 1022h211V0h129v1022h237v111H379v84q0 111 35 172t129 61q37 0 59.5-7t38.5-16l10 111q-10 6-38.5 14.5T537 1561q-156 0-221.5-89.5T250 1192v-59H39v-111zM825 0h129v1536H825V0z"/><glyph horiz-adv-x="911" d="M20 395l146 103V0h715v123H307v475l361 254v139L307 737v695H166V637L20 535V395z"/><glyph horiz-adv-x="458" d="M29 592l135 108V0h127v801l137 110v144L291 944v592H164V844L29 735V592z"/><glyph horiz-adv-x="1024" d="M43 0h920v123H197l741 1186v123H61v-123h727L43 123V0zm190 1786l195-295h164l192 295h-92l-182-207-184 207h-93z"/><glyph horiz-adv-x="909" d="M66 0h778v111H215l627 911v111H90v-111h604L66 111V0zm112 1452l195-295h164l192 295h-92l-182-207-185 207h-92z"/><glyph horiz-adv-x="454"/><glyph horiz-adv-x="454"/><glyph horiz-adv-x="454"/><glyph unicode="!" horiz-adv-x="792" d="M313 0h164v172H313V0zm0 1432l25-1086h117l24 1086H313z"/><glyph unicode="&quot;" horiz-adv-x="1128" d="M360 981h127v451H360V981zm277 0h127v451H637V981z"/><glyph unicode="#" d="M70 449h213L219 0h123l64 449h270L612 0h123l64 449h215v110H813l45 313h209v111H872l64 449H813l-63-449H479l64 449H420l-64-449H123V872h219l-45-313H70V449zm350 110l45 313h270l-45-313H420z"/><glyph unicode="$" d="M174 1096q0-162 121-260 53-43 111.5-80T526 686V100h-18q-55 0-105.5 8.5T311 130t-72.5 29.5T193 190L178 47q133-70 334-70h14v-159h107v172q119 27 203 98 133 115 133 277 0 152-79 242.5T653 776l-12 6-8 4v547q100-4 151-18 66-20 99-39l24 123q-57 27-133 43-33 6-67.5 9t-73.5 5v125H526v-131q-133-23-225-98-127-102-127-256zm141-9q0 111 82 179 53 41 129 59V844q-41 27-72.5 48T399 932q-84 74-84 155zm318-968v512q92-53 133-96 63-63 63-162 0-121-92-197-43-37-104-57z"/><glyph unicode="%" horiz-adv-x="2039" d="M211 1065q0-184 83-282.5T537 684t243.5 99.5T864 1067q0 180-83.5 279.5T537 1446q-156 0-241-100.5T211 1065zm129 0q0 129 50.5 200.5T539 1337t147-71.5 49-200.5-50-199.5T537 795t-147.5 70.5T340 1065zM537-45h118l846 1522h-121zm643 412q0-184 83-282.5T1505-14q160 0 244 99t84 284q0 180-86 279.5T1505 748t-240.5-100.5T1180 367zm129 0q0 129 50 200.5t148 71.5 147.5-71.5T1704 367t-50-200-149-71q-98 0-147 71t-49 200z"/><glyph unicode="&amp;" horiz-adv-x="1370" d="M102 365q0-74 31-143.5t88.5-125T362.5 8 555-25q184 0 309 76 31 18 67 49t77 72L1163 0l176 2-249 268q4 4 9 12.5t13 18.5q31 49 56.5 108.5t43 124 26.5 129 9 125.5h-114q-4-43-8.5-87t-14.5-90-26.5-97-43.5-113q-14-25-30-45L625 772q53 20 107 52t112 73q129 94 129 272 0 68-27.5 121t-75 90-109 56.5T633 1456q-78 0-146.5-23.5t-121-64.5-82-98.5T254 1145q0-49 16.5-97.5t43-92.5 59.5-85 63-73l4-6q-170-61-252-160-86-102-86-266zm142 22q0 102 78 193 73 86 192 131l414-453q-27-27-51.5-47.5T829 174Q710 86 557 86q-61 0-118.5 22.5T338 171t-68.5 95.5T244 387zm149 752q0 49 18.5 87t50.5 64.5 71.5 41T616 1346q98 0 155.5-49.5T829 1143q0-115-81-185-74-63-191-114l-2 2q-78 78-120 144.5T393 1139z"/><glyph unicode="'" horiz-adv-x="565" d="M219 981h127v451H219V981z"/><glyph unicode="(" horiz-adv-x="573" d="M88 631q0-137 38-275.5T219 94t116.5-222T444-289l84 2q-31 49-84 148.5T341 88t-88 268.5T215 631q0 88 17.5 181t45 184 63.5 176 70.5 158 65.5 128 51 88l-84 2q-47-61-108.5-161.5T219 1163t-93-260-38-272z"/><glyph unicode=")" horiz-adv-x="573" d="M43-287l84-2q45 61 106.5 160.5T350.5 94t94 261.5T483 631q0 135-38.5 272t-94 260-117 223.5T127 1548l-84-2q20-33 51-88t66-128 70.5-158T294 996t45-184 17-181q0-133-37.5-274.5T230.5 88 127-138.5 43-287z"/><glyph unicode="*" horiz-adv-x="1132" d="M190 991l289 8-153-245 106-60 135 254 135-254 107 60-154 245 289-8v119l-289-10 154 248-107 59-135-254-135 254-106-59 153-248-289 10V991z"/><glyph unicode="+" horiz-adv-x="1228" d="M94 455h451V4h139v451h449v139H684v444H545V594H94V455z"/><glyph unicode="," horiz-adv-x="569" d="M111-272h127l163 446H227z"/><glyph unicode="-" horiz-adv-x="681" d="M14 481h512v142H14V481z"/><glyph unicode="." horiz-adv-x="569" d="M20 0h168v172H20V0z"/><glyph unicode="/" horiz-adv-x="575" d="M-59-29H82l553 1485H494z"/><glyph unicode="0" d="M100 711q0-170 29-304.5T216 178 362.5 35 567-14q117 0 205 49t146.5 143 88 228.5T1036 711v8q0 172-29.5 306t-88 228.5T773 1397t-204 49-205-49-146-143.5-88-228.5-30-306v-8zm142 0v8q0 289 76.5 446.5T567 1323t250-157.5T895 719v-8q0-287-78-444.5T569 109q-174 0-250.5 156.5T242 711z"/><glyph unicode="1" d="M252 1167l78-94 231 199V0h144l-3 1432H578z"/><glyph unicode="2" d="M100 0h863v123H276l392 432q27 31 71.5 87T827 770t74 153 31 158q0 82-30 149.5t-84 116-131 74-171 25.5q-55 0-114.5-13.5t-111.5-31-90-34.5-46-26l26-127q12 10 44 29t78 36 103.5 30.5T524 1323q53 0 99.5-19.5t80-54.5 53-81 19.5-101q0-53-20.5-111.5t-50-113T642 741t-60-77Q467 525 345 391.5T100 123V0z"/><glyph unicode="3" d="M102 51q12-6 44-17t77-22.5T324.5-7 446-14q117 0 214.5 28.5t166 83 106.5 130T971 399q0 154-81 247T668 748q135 29 218 121t83 221q0 168-120 262t-329 94q-61 0-117.5-8T300 1418.5t-80-24-50-20.5l16-131q16 8 48 22.5t74 27 93.5 21.5 106.5 9q70 0 128-18.5t101-49 66.5-72.5 23.5-91q0-147-117.5-216T377 807h-68V682h129q193 0 292-64.5T829 412 728 190t-273-81q-63 0-119.5 8t-101 20.5-74 25.5-41.5 21z"/><glyph unicode="4" d="M47 328h682V0h139v328h211v123H868v981H690L47 467V328zm131 123l551 843V451H178z"/><glyph unicode="5" d="M174 45q8-6 35-15.5T275.5 10t92-17T481-14q121 0 217.5 31.5t164 93T967 260t37 199q0 203-120 313.5T553 883q-57 0-111.5-7.5T336 850l10 459h594v123H207l-14-721q63 23 142 36t171 13q356 0 356-314 0-160-102.5-248.5T479 109q-55 0-107.5 10t-94 23.5T209 169t-33 19z"/><glyph unicode="6" d="M111 643q0-174 30.5-299t91-205T379 22.5 575-14q102 0 187.5 33.5t146 94 94 144.5 33.5 186q0 221-116.5 342T592 907q-115 0-205-51-76-39-131-129 2 240 98 399 123 199 381 199 86 0 151.5-17.5T969 1282l12 131q-31 8-96.5 21.5T741 1446q-309-10-469.5-207T111 643zm153-151q29 160 107 219 96 72 223 71 147 0 224-88t77-250q0-74-22.5-136T808 202t-99.5-68.5T582 109q-168 0-244 112-29 41-46.5 108T264 492z"/><glyph unicode="7" d="M119 1309h733L281 0h155l555 1309v123H119v-123z"/><glyph unicode="8" d="M94 369q0-86 35-156t98.5-121T377 13.5 567-14q221 0 348 101t127 286q0 129-74.5 219T707 745q53 27 105 66t93 86 66.5 100.5T997 1108q0 76-29.5 138.5t-84 107.5-130 68.5T586 1446q-98 0-180-24.5T264.5 1352 172 1243.5 139 1104q0-49 13.5-94t46-90.5 87-88.5T422 745q-172-57-250-146T94 369zm142 6q0 117 91.5 190.5T569 690q147-57 240.5-132T903 373q0-59-24.5-107.5T810 182t-104.5-54T571 109q-72 0-132 20.5t-106 55-71.5 83.5T236 375zm45 725q0 49 21.5 90t60 70.5 91 46T567 1323t113.5-17.5 91.5-47 61.5-69.5 22.5-87q0-59-30.5-107.5T750 907t-93.5-66.5T571 799q-55 18-107 49t-93 70.5-65.5 86T281 1100z"/><glyph unicode="9" d="M98 987q0-217 117-339t328-122q109 0 198 47 88 47 140 136v-7q0-233-101-395-123-201-381-201-86 0-151.5 16.5T166 150L154 18q14-4 39.5-10T250-3t67.5-9 75.5-2Q702-4 863 192.5T1024 788q0 174-30.5 299t-90 205T758 1409t-197 37q-102 0-187-34t-146.5-94.5T132 1173 98 987zm142 0q0 76 22.5 138.5T327 1232t99 67.5 129 23.5q160 0 240-115 57-84 75-274-29-150-110-213-96-72-219-72-147 0-224 89t-77 249z"/><glyph unicode=":" horiz-adv-x="569" d="M201 0h168v172H201V0zm0 872h168v172H201V872z"/><glyph unicode=";" horiz-adv-x="569" d="M111-272h127l163 446H227zm90 1144h168v172H201V872z"/><glyph unicode="&lt;" horiz-adv-x="1228" d="M96 461L1133-10v135L254 520l879 395v136L96 580V461z"/><glyph unicode="=" horiz-adv-x="1228" d="M94 246h1039v139H94V246zm0 409h1039v140H94V655z"/><glyph unicode="&gt;" horiz-adv-x="1228" d="M96-10l1037 471v119L96 1051V915l879-395L96 125V-10z"/><glyph unicode="?" horiz-adv-x="1028" d="M176 1397l8-127q20 10 54 21.5t72 20.5 77 15 74 6q129 0 199.5-67.5T731 1085q0-94-38-167.5T606 795Q495 689 443 592.5T391 391v-45h129v45q0 84 42 162t138 176q27 27 56.5 61.5T812 869t42 98.5 16 119.5q0 80-24.5 148T772 1352t-125 76.5-178 27.5q-39 0-81-5t-82-14.5-73.5-19.5-56.5-20zM375 0h164v172H375V0z"/><glyph unicode="@" horiz-adv-x="1640" d="M90 532q0-147 57.5-281t160-235.5 244.5-162T864-207q102 0 198.5 30T1240-99 1381.5 7.5 1473 121l-107 2q-31-43-82-83t-119.5-71.5-149.5-50T846-100q-123 0-237.5 47t-204 130T262 273.5 209 522q0 133 51 248t138 200 204 134 248 49q121 0 225.5-40t181-106.5T1377 851t44-187q0-94-28.5-178.5t-72.5-148-96.5-101T1124 199q-37 0-53 24-10 12-10 39 0 10 1 21.5t5 23.5l197 590h-127l-50-139q-14 49-37.5 84t-52 56.5T937 929t-60 9q-111 0-199-48T527.5 765 432 588.5 399 389q0-72 22.5-126t60.5-91 88.5-56.5T674 96q84 0 149.5 40T930 227q20-82 62-108.5t83-26.5q82 0 164 45t148.5 122T1496 438.5t42 216.5q0 121-51 230.5T1344.5 1078 1126 1210.5 848 1260q-158 0-296-60.5t-240.5-161-162-231.5T90 532zm449-120q0 72 27.5 147.5t74.5 138T751.5 800 887 840q70 0 110.5-63.5T1038 623q0-53-27.5-126T937 358.5 827.5 247 694 201q-59 0-107 53t-48 158z"/><glyph unicode="A" horiz-adv-x="1333" d="M29 0h137l153 387h717L1192 0h143L772 1432H612zm344 510l309 788 307-788H373z"/><glyph unicode="B" d="M164 0h295q262 0 404.5 102.5T1006 408q0 59-17.5 113T933 620.5t-97.5 79T694 752q150 33 208.5 111.5T961 1071q0 186-117 273.5T498 1432H164V0zm141 123v684l4 502h201q147 0 228-57.5t81-174.5q0-135-90-202.5T471 807h-88l2-127 88 4q23 1 44 1 160 1 247-65 98-74 98-225 0-135-104.5-203.5T463 123H305z"/><glyph unicode="C" horiz-adv-x="1372" d="M115 715q0-170 51-306.5T310 176 536.5 27.5 836-25q98 0 183 16.5T1171 45l-12 119q-53-37-142-51.5T834 98q-133 0-240 43T411.5 265 296 460t-40 255 41 254.5T413.5 1164t182 125 238.5 44q88 0 172-15t151-50l14 129q-59 27-145 43t-197 16q-160 0-291.5-53t-225-151.5T167 1017t-52-302z"/><glyph unicode="D" horiz-adv-x="1370" d="M166 0h262q391 0 601 181t210 534q0 352-180 534.5T528 1432H166V0zm141 123v1186h199q592 0 592-594 0-301-170-446.5T420 123H307z"/><glyph unicode="E" horiz-adv-x="1026" d="M176 0h727v123H317v553h533v123H317v510h439v123H176V0z"/><glyph unicode="F" horiz-adv-x="911" d="M158 0h141v676h436l-2 123H299v510h543v123H158V0z"/><glyph unicode="G" horiz-adv-x="1484" d="M129 715q0-172 51-308.5T326.5 174 557 26.5 862-25q129 0 237.5 27T1300 76v696H735V649h424V156q-43-27-120.5-42.5T854 98q-135 0-242.5 43T428 265 311 460t-41 255 41 255.5T427 1165t182.5 124 242.5 44q98 0 194.5-17.5T1219 1255l22 125q-68 35-169 55.5T842 1456q-160 0-292-53t-225.5-150.5T180 1018t-51-303z"/><glyph unicode="H" horiz-adv-x="1366" d="M180 0h142v676h722V0h142v1432h-142V799H322v633H180V0z"/><glyph unicode="I" horiz-adv-x="454" d="M158 0h139v1432H158V0z"/><glyph unicode="J" horiz-adv-x="688" d="M29 8q2-6 17-12t36.5-11 46.5-8.5 49-3.5q168 0 253 105.5T516 383v1049H375V383q0-156-54.5-220.5T172 98q-57 0-92 11.5T31 129z"/><glyph unicode="K" horiz-adv-x="1251" d="M195 0h141v786l4 7L1030 0h193L473 840l694 592H979L336 866v566H195V0z"/><glyph unicode="L" horiz-adv-x="909" d="M162 0h715v123H303v1309H162V0z"/><glyph unicode="M" horiz-adv-x="1822" d="M176 0h139v1305L856 0h125l524 1305V0h140v1432h-205L926 193 416 1432H176V0z"/><glyph unicode="N" horiz-adv-x="1368" d="M158 0h139v1247L1024 0h190v1432h-139V164L336 1432H158V0z"/><glyph unicode="O" horiz-adv-x="1484" d="M113 715q0-170 44-306.5T281.5 176 480 27.5 745-25t265 52.5T1209 176t125 232.5 44 306.5-44 307-125 233.5-198.5 148.5-265.5 52q-147 0-265-52t-198.5-148.5T157 1022t-44-307zm141 0q0 135 36 248.5T390.5 1159 545 1287t200 46q111 0 201-46t154.5-128T1201 963.5t36-248.5-36-249-100.5-195T946 144 745 98t-200.5 46-154 127T290 466t-36 249z"/><glyph unicode="P" horiz-adv-x="1028" d="M174 0h141v1309h226q141 0 217-70t76-205q0-154-92.5-222.5T459 743h-53V616l116 2q100 2 183 31t142.5 81T940 856t33 164q0 197-116 304.5T537 1432H174V0z"/><glyph unicode="Q" horiz-adv-x="1484" d="M113 715q0-170 44-306.5T281.5 176 480 27.5 745-25q39 0 69 3.5t52 7.5q2-2 29-28t78-77q37-37 79-77t78.5-74.5T1192-326l25-22 90 90-40 39-122 117Q1016 23 1010 27q63 33 113.5 69.5T1208 176q170 201 170 539 0 170-44 307t-125 233.5-198.5 148.5-265.5 52q-147 0-265-52t-198.5-148.5T157 1022t-44-307zm141 0q0 135 36 248.5T390.5 1159 545 1287t200 46q111 0 201-46t154.5-128T1201 963.5t36-248.5-36-249-100.5-195T946 144 745 98t-200.5 46-154 127T290 466t-36 249z"/><glyph unicode="R" horiz-adv-x="1140" d="M178 0h141q0 176-3 338t-4 320v319q1 160 7 332h175q174 0 254.5-52.5T829 1071q0-131-98-202.5T465 797h-62V676h52q66 0 107.5-13.5t69-37 45-57T711 496L924 0h155L823 575q-10 23-22.5 46.5t-32.5 43-50 36-75 24.5q172 31 250 125t78 219q0 178-109.5 270.5T549 1432H178V0z"/><glyph unicode="S" horiz-adv-x="1024" d="M119 1096q0-80 33.5-144.5t88-115 123-91 140-75.5 123-68 84-67.5 48-74.5 15.5-89q0-59-23.5-109.5T684 175t-102.5-56.5T453 98q-55 0-105.5 8.5T256 128t-72.5 29.5T137 188L123 45q133-70 334-70 96 0 179 30t144.5 82 97 122.5T913 362q0 152-77.5 244T598 776q-170 84-254 157t-84 154q0 111 83 178.5t214 67.5q113 0 173.5-18.5T827 1276l25 123q-117 57-293 57-92 0-173-27.5T245.5 1353t-93-115-33.5-142z"/><glyph unicode="T" horiz-adv-x="1021" d="M20 1309h422V0h142v1309h415v123H20v-123z"/><glyph unicode="U" horiz-adv-x="1366" d="M166 489q0-117 37-212t104.5-162.5T471 11t215-36q117 0 212 36t162.5 103.5 104.5 163 37 211.5v943h-139V494q0-90-27.5-163t-77-124-119-80T684 98q-174 0-275.5 106.5T307 498v934H166V489z"/><glyph unicode="V" horiz-adv-x="1255" d="M12 1432L549 0h151l547 1432h-141L627 143 160 1432H12z"/><glyph unicode="W" horiz-adv-x="1933" d="M18 1432L428 0h170l373 1280L1333 0h168l414 1432h-133L1417 152l-358 1280H887L518 156 164 1432H18z"/><glyph unicode="X" horiz-adv-x="1251" d="M14 0h162l455 649L1065 0h174L717 754l481 678h-158L635 854l-402 578H68l479-678z"/><glyph unicode="Y" horiz-adv-x="1251" d="M25 1432l532-824V0h139v606l529 826h-154L627 729l-439 703H25z"/><glyph unicode="Z" horiz-adv-x="1024" d="M43 0h920v123H197l741 1186v123H61v-123h727L43 123V0z"/><glyph unicode="[" horiz-adv-x="571" d="M143-276q0-8 56-11 29-2 61-2h217v99H342l-70 8v1624l70 8h135v98H334q-39 0-73-1t-62-3q-55-4-56-8V-276z"/><glyph unicode="\" horiz-adv-x="583" d="M-57 1456L498-29h139L82 1456H-57z"/><glyph unicode="]" horiz-adv-x="571" d="M94-190v-99h217q33 0 62 2 55 2 55 11v1812q0 4-55 8-29 2-61.5 3t-73.5 1H94v-98h137l68-8V-182l-68-8H94z"/><glyph unicode="^" horiz-adv-x="1228" d="M100 545h148l364 743 367-743h147l-450 887H549z"/><glyph unicode="_" horiz-adv-x="1024" d="M0-358v-103h1030v103H0z"/><glyph unicode="`" horiz-adv-x="460" d="M-4 1450l260-293 94 2-194 293z"/><glyph unicode="a" horiz-adv-x="1024" d="M82 309q0-147 89-241.5T420-27q92 0 182 41t160 152V0l117 2 2 12q2 13 0 35-2 25-2 55v680q0 184-92.5 278.5T514 1157q-55 0-112.5-14.5T296 1110t-84-37.5-48-28.5l41-86q61 41 143 65t160 24q117 0 179.5-63.5T750 782V453q0-164-77-265.5T444 86q-117 0-169 59.5T223 309q0 123 105.5 191.5T649 573q2 0 2 17v37q0 23-1 40l-1 17h-14q-270 0-411.5-97.5T82 309z"/><glyph unicode="b" horiz-adv-x="1144" d="M147 0h129v172Q350 57 426 16t178-41 184 42 138.5 120 87 186.5T1044 567q0 137-27.5 247T935 999.5 802 1116t-184 41q-98 0-182-39.5T276 961v575H147V0zm129 567q0 109 21.5 197T361 915.5t101.5 97.5 137.5 34q147 0 225-128t78-352q0-109-20.5-197.5t-60.5-151-96-97.5-126-35-129 35-102 98.5-68 151T276 567z"/><glyph unicode="c" horiz-adv-x="917" d="M84 567q0-135 36-243.5T221.5 137 381 17t211-42q104 0 165.5 24T854 53l-12 119q-6-10-26.5-24.5t-51.5-28T694 96t-78-10q-90 0-161.5 36T332 222.5 253 376t-28 197q0 106 28 194.5t80 150 125.5 95.5 166.5 34q33 0 66.5-7.5t63-16.5 54.5-18.5 37-15.5l12 121q-43 16-108.5 31.5T606 1157q-117 0-213-43T228.5 993 122 806.5 84 567z"/><glyph unicode="d" horiz-adv-x="1144" d="M102 567q0-137 30-246.5T218 134 356 16t187-41q92 0 178 41t147 156V0h129v1536H868V948q-37 63-76.5 104.5t-82.5 65-89.5 31.5-91.5 8q-104 0-183-41T212 999.5t-82-185T102 567zm142 0q0 223 75.5 351.5T543 1047q72 0 131-34t102-97.5T842.5 764 866 567q0-104-22.5-193T781 221.5 683 122 555 86q-154 0-232.5 129T244 567z"/><glyph unicode="e" horiz-adv-x="1030" d="M84 567q0 127 33 234.5T207 988t137 124 174 45q214 1 326-151 102-139 103-380 0-22-1-44l-2-52-633 5 2 106h492q-4 190-71.5 298T543 1047q-147 0-238-134-70-106-84-272V530q10-203 92-315Q407 86 580 86q43 0 90 14.5t87 34 69.5 41T866 211l64-88q-20-20-63.5-46T770 28.5t-109.5-38T559-25q-236 0-355.5 153T84 567z"/><glyph unicode="f" horiz-adv-x="681" d="M39 1022h211V0h129v1022h235v111H379v84q0 111 33.5 172t128.5 61q39 0 60.5-7t37.5-16l72 70q-6 2-24.5 13.5T641 1532t-55.5 19.5-53.5 9.5q-150 0-216-89.5T250 1192v-59H39v-111z"/><glyph unicode="g" horiz-adv-x="1142" d="M100 567q0-129 32-233.5t90.5-178T362.5 41 547 0q45 0 89 9t85 34 77.5 66.5T866 217v-72q0-248-80.5-362.5T514-332q-55 0-107.5 8.5T311-303t-72.5 25.5T197-252l-13-129q14-6 46-17.5t76-20.5 97.5-16 112.5-7q111 0 200 36.5T867.5-301t95 166T995 86v1047H866v-125q-41 51-79.5 80.5t-78.5 45-80 19.5-83 4q-227 0-336-151.5T100 567zm142 0q0 111 19.5 199t57 150.5 94 96.5 130.5 34q172 0 247.5-122T866 567q0-102-22.5-186T779 237.5t-101.5-93T545 111q-72 0-128.5 32.5t-95 92-59 143.5T242 567z"/><glyph unicode="h" horiz-adv-x="1140" d="M160 0h129v637q0 92 21.5 169T373 936t99 83 132 30q113 0 179.5-89.5T850 723V0h129v717q0 211-90 325.5T625 1157q-123 0-206-52T289 936v600H160V0z"/><glyph unicode="i" horiz-adv-x="454" d="M162 0h127v1133H162V0zm0 1409h131v174H162v-174z"/><glyph unicode="j" horiz-adv-x="454" d="M-57-319v-113l114-10q125 0 179.5 76.5T291-133v1266H162V-102q0-125-25.5-177.5T25-332zm219 1728h131v174H162v-174z"/><glyph unicode="k" horiz-adv-x="1024" d="M162 0h129v635l4 6L811 0h174L418 686l508 447H760L291 721v815H162V0z"/><glyph unicode="l" horiz-adv-x="454" d="M162 0h127v1536H162V0z"/><glyph unicode="m" horiz-adv-x="1710" d="M160 0h129v637q0 186 75.5 299T578 1049q104 0 162.5-88.5T799 723V0h129v637q0 186 75.5 299t213.5 113q104 0 161.5-88.5T1436 723V0h129v717q0 211-85 325.5T1229 1157q-131 0-215-62.5T891 926q-18 117-96 174t-183 57q-123 0-205.5-52T276 936v197H160V0z"/><glyph unicode="n" horiz-adv-x="1140" d="M160 0h129v637q0 92 21.5 169T373 936t99 83 132 30q113 0 179.5-89.5T850 723V0h129v717q0 211-90 325.5T625 1157q-125 0-212-52T276 936v197H160V0z"/><glyph unicode="o" horiz-adv-x="1142" d="M82 567q0-133 35-241.5T215.5 139 370 18t201-43q111 0 202 43t154.5 121 98.5 186.5 35 241.5q0 131-35 241t-98.5 186.5T773 1114t-202 43-201.5-43-154-119.5T117 808 82 567zm141 0q0 104 24.5 192.5t71 152 110 99.5 142.5 36q80 0 143.5-36T824 911.5t71-152T920 567q0-106-25-195t-71-152.5T714.5 121 571 86t-143 35-109.5 98.5-71 152.5T223 567z"/><glyph unicode="p" horiz-adv-x="1144" d="M147-430h129v604Q327 65 418.5 20T604-25q104 0 186 42t138.5 119 86 186.5T1044 567q0 283-109.5 436.5T604 1157q-92 0-178-45T264 942v191H147V-430zm129 995v2q0 106 24 195.5t65 152 99 97.5 126 35q74 0 132-34t98-97.5T881.5 764 903 567q0-223-80-352T590 86q-72 0-129.5 36t-98 99.5T299 373t-23 192z"/><glyph unicode="q" horiz-adv-x="1144" d="M100 567q0-135 30-244.5T216 136 354 17t187-42q45 0 92 10.5t89 35T800.5 87 866 195v-625h129v1560H864V942q-68 125-152.5 170T541 1157q-223 0-332-151.5T100 567zm142 0q0 223 78.5 351.5T555 1047q68 0 124-34t98-96.5 64.5-150T864 575q0-109-21.5-198.5t-62.5-154T682 122 555 86q-154 0-233.5 129T242 567z"/><glyph unicode="r" horiz-adv-x="679" d="M162 0h129v559q0 104 17.5 189.5t50 145.5 80.5 94 110 34l94-27 66 127-148 35q-86 0-161.5-58.5T279 911v222H162V0z"/><glyph unicode="s" horiz-adv-x="796" d="M70 31Q109 8 188.5-9.5T350-27q86 0 154.5 23.5t118 66.5 76 103.5T725 301q0 123-75 202T444 641q-98 45-164.5 97.5T213 858q0 86 53 137.5t164 51.5q59 0 126-15.5T668 995l14 109q-16 8-46 17t-67 17.5-75.5 13.5-71.5 5q-74 0-136.5-20.5T179 1078t-69.5-94T84 856q0-68 26.5-118t67.5-87 90-63.5 94.5-49 86-46 71.5-52 48.5-66.5 17.5-87q0-43-18.5-80T516 143.5t-75-42T350 86q-43 0-87 8t-81 19.5-63.5 24T84 158z"/><glyph unicode="t" horiz-adv-x="681" d="M41 1022h205V283q0-166 50-237t181-71q53 0 98.5 11.5T633 4l-4 105q-16-6-44-15.5T512 84q-63 0-100 41t-37 117v780h239v111H375v299l-129-46v-253H41v-111z"/><glyph unicode="u" horiz-adv-x="1140" d="M160 428q0-223 89-338T524-25q123 0 209 56.5T862 193l2-193h115v1133H850V477q0-86-21.5-158.5t-62.5-124-98.5-80T541 86q-123 0-187.5 90T289 428v705H160V428z"/><glyph unicode="v" horiz-adv-x="913" d="M20 1133L375 0h153l371 1133H762L455 139l-295 994H20z"/><glyph unicode="w" horiz-adv-x="1595" d="M12 1133L352 0h158l283 995L1077 0h156l348 1133h-129L1157 133l-274 997H723v-10L434 135l-282 998H12z"/><glyph unicode="x" horiz-adv-x="911" d="M14 0h152l293 494L733 0h160L535 598l323 535H711L459 700l-248 433H51l332-535z"/><glyph unicode="y" horiz-adv-x="913" d="M12 1133L383 12l-39-149q-25-94-68-145.5T168-334l-94 17-11-109q16-4 52.5-10t85.5-6 91 25.5 74.5 66.5 57.5 92 43 104l426 1287H754L446 182l-296 951H12z"/><glyph unicode="z" horiz-adv-x="909" d="M66 0h778v111H215l627 911v111H90v-111h604L66 111V0z"/><glyph unicode="{" horiz-adv-x="571" d="M80 580q86-10 123-78t37-197V-10q0-61 10-112.5t38.5-88.5 77-57.5T492-289h71v99H451q-29 0-55.5 45T369-8v313q0 76-11.5 128t-34 89-55 61.5T193 631q43 20 75.5 45.5t55 61.5 34 88.5T369 954v314q0 92 26.5 137t55.5 45h112v98h-71q-78 0-126.5-20.5t-77-57-38.5-88-10-112.5V954q0-129-37-196.5T80 680V580z"/><glyph unicode="|" horiz-adv-x="473" d="M166-29h141v1565H166V-29z"/><glyph unicode="}" horiz-adv-x="571" d="M10-190v-99h72q76 0 125 20.5t76.5 57.5 38 88T332-10v315q0 129 35.5 196.5T489 580v100q-86 10-121.5 77.5T332 954v316q0 61-10.5 112.5t-38 88-76.5 57T82 1548H10v-98h113q29 0 54.5-45t25.5-137V954q0-76 12-128t34.5-88 54.5-61.5 73-45.5q-41-23-73-47.5T249.5 522 215 433t-12-128V-8q0-92-25.5-137T123-190H10z"/><glyph unicode="~" horiz-adv-x="1228" d="M141 477l76-100q29 57 77 102t103 45 199-75q143-74 231-74 92 0 160 55t103 133l-78 101q-31-57-77-102.5T831 516q-57 0-200 74-143 76-228 76-94 0-161.5-55.5T141 477z"/><glyph unicode="¡" horiz-adv-x="792" d="M313-385h166L455 700H338zm2 1259h164v173H315V874z"/><glyph unicode="¢" d="M201 571q0-266 137-428 41-47 106-92l-69-231h98l57 190q68-29 179-28 104 0 165.5 23.5T971 59l-13 119q-6-10-26.5-24.5t-51-27.5-69.5-23.5T733 92q-104 0-166 37l277 905q8-2 14-4l12-4q33-10 55.5-19.5T963 991l12 121q-20 8-45 14.5t-53 14.5l49 157h-99l-43-141q-14 2-30 2h-31q-117 0-213-43T345 995.5 238.5 809 201 571zm141 7q0 106 27.5 193t80 148.5 126 95.5 165.5 34h11L487 184q-12 10-21 20.5T449 225Q343 358 342 578z"/><glyph unicode="£" d="M135 0h522l338 10-2 119-506-6v590h342v108H485v107q0 213 77 304t224 91q68 0 119-13.5t99-39.5l20 125q-39 25-102.5 38T780 1446q-111 0-192.5-36t-136-100.5-81-154.5T344 956V821H158V713h188V123H135V0z"/><glyph unicode="¥" d="M39 1432l401-709H203v-98h293l4-9V459H203v-99h297V0h141v360h295v99H641v153l6 13h289v98H702l400 709H954L569 741l-374 691H39z"/><glyph unicode="¦" horiz-adv-x="473" d="M166-29h141v551H166V-29zm0 1014h141v551H166V985z"/><glyph unicode="§" horiz-adv-x="1140" d="M184 608q0-98 52.5-162.5T408 328l237-105q63-29 108.5-76T799 35q0-45-25.5-78T706-96.5 610.5-126 502-135q-72 0-154 15.5T209-78l-12-119q49-18 133-33.5T524-246q86 0 162 21.5T818-163t89 97.5T940 63q0 76-47 134.5T770 293q98 86 140 161.5T952 602q0 98-52 162.5T729 883L492 987q-66 29-110 76t-44 113q0 45 22.5 77.5t58.5 53 83 30 96 9.5q57 0 128-15.5t128-42.5l12 119q-45 18-121.5 33.5T569 1456q-78 0-145.5-21.5T305 1373t-79.5-97-28.5-129q0-76 47-134.5T367 918q-98-86-140.5-162T184 608zm131 25q0 27 10.5 60.5t30 65.5 47 60.5T463 866l225-102q74-43 103.5-82T821 580q0-29-10-62t-29.5-65.5-47-61.5-60.5-47L449 449q-78 35-106 77.5T315 633z"/><glyph unicode="¨" horiz-adv-x="460" d="M-23 1223h152v172H-23v-172zm351 0h151v172H328v-172z"/><glyph unicode="©" horiz-adv-x="1636" d="M78 715q0-154 58.5-288T294 192.5t234.5-159T817-25q154 0 288 58.5t233.5 159T1496 427t58 288-58 288-157.5 234-234.5 158.5-289 58.5-288-58.5T294 1237t-157.5-234.5T78 715zm139 0q0 129 47 243.5T392 1159t190.5 135 234.5 49q123 0 232.5-49t190.5-135 128-200.5 47-245.5q0-129-47-244t-128-201-190.5-135T815 84q-123 0-232.5 49T392 268 264 469t-47 246zm184 0q0-102 34-187.5T527.5 382 667 288t177-34q63 0 122.5 21.5T1074 337t83 99.5 51 136.5h-121q-18-94-80.5-151T844 365q-72 0-127 28.5T623 470t-59.5 111.5T543 717q0 74 19.5 137.5t56 111.5 91 74.5T836 1067q51 0 96-17.5t77.5-45 52-63.5 23.5-73h117q-10 80-42 137.5t-80 96.5-108.5 57.5T844 1178q-104 0-186.5-34T519 1048.5 432 902t-31-187z"/><glyph unicode="ª" horiz-adv-x="667" d="M45 995q0-92 59.5-147T274 793q61 0 124 24t110 92V809l88 2-8 100v369q0 223-248 223-76 0-135.5-17.5T129 1458v-74q41 25 97.5 39.5T336 1438q78 0 121-39t43-121v-59h-78q-184 0-280.5-58.5T45 995zm96 0q0 74 72 115t219 43q14 0 25.5-1t21.5-3q20-2 21-10v-58q0-98-51.5-159.5T293 860q-80 0-116 37t-36 98z"/><glyph unicode="«" horiz-adv-x="1132" d="M186 553l285-420 123 2-272 418 272 418-123 2-278-410zm357 0l284-420 123 2-272 418 272 418-123 2-278-410z"/><glyph unicode="¬" horiz-adv-x="1228" d="M94 657h897V244h142v555h-7l-206 229h159v8H909l-10 13 207 206h-68l-190-192v356h-53v-383l-76 248h-35l-63-221-64 221h-35l-76-248H332v-8h463V799H94V657zm381 379l66 219 59-219H475zm162 0l63 219 64-219H637zm211-237v229h4l203-229H848z"/><glyph unicode="­" horiz-adv-x="681" d="M14 481h512v142H14V481z"/><glyph unicode="®" horiz-adv-x="1636" d="M78 715q0-154 58.5-288T294 192.5t234.5-159T817-25q154 0 288 58.5t233.5 159T1496 427t58 288-58 288-157.5 234-234.5 158.5-289 58.5-288-58.5T294 1237t-157.5-234.5T78 715zm139 0q0 129 47 243.5T392 1159t190.5 135 234.5 49q123 0 232.5-49t190.5-135 128-200.5 47-245.5q0-129-47-244t-128-201-190.5-135T815 84q-123 0-232.5 49T392 268 264 469t-47 246zm318-432h141v383h121q33-47 61.5-94.5t57-96.5 58.5-97 58-95l158 2-250 381q123 8 174 78.5t51 175.5q0 45-16 87t-51 73.5-87.5 50T889 1149H535V283zm141 493v262h174q70 0 120-30.5t50-85.5q0-70-34-108t-132-38H676z"/><glyph unicode="¯" horiz-adv-x="464" d="M-20 1247h503v111H-20v-111z"/><glyph unicode="°" horiz-adv-x="819" d="M86 1139q0-68 25.5-126.5T181 910t102.5-69.5T410 815t126 25.5T638 910t69.5 102.5T733 1139t-25.5 126-69.5 102-102 69.5-126 25.5-126.5-25.5T181 1367t-69.5-102.5T86 1139zm107 0q0 92 62.5 154.5T410 1356t154.5-62.5T627 1139t-62.5-154.5T410 922t-154.5 62.5T193 1139z"/><glyph unicode="±" horiz-adv-x="1228" d="M94 0h1039v143H94V0zm0 549h449V203h143v346h447v143H686v346H543V692H94V549z"/><glyph unicode="²" horiz-adv-x="737" d="M78 569h569v76H195l258 262q18 18 47.5 53t57.5 79 48.5 93.5T627 1229q0 100-75 161.5T352 1452q-37 0-75.5-8t-73.5-19.5-58.5-21.5-29.5-14l16-78q8 6 29.5 17t52.5 21.5 67.5 18.5 77.5 8q70 0 118-45t48-110q0-33-13-69t-32.5-68.5-42-61.5-41.5-47L78 645v-76z"/><glyph unicode="³" horiz-adv-x="737" d="M55 600q18-8 80-23.5T283 561q156 0 251 67.5T629 813q0 94-53.5 150.5T428 1026q88 16 143.5 73.5T627 1235q0 104-80 160.5T332 1452q-82 0-146.5-17.5T100 1407l11-80q23 12 81 30.5t132 18.5q92 0 151.5-41t59.5-100q0-92-79-133t-220-41h-43v-76h83q129 0 194-39t65-125-68-136-178-50q-86 0-146.5 18.5T66 682z"/><glyph unicode="´" horiz-adv-x="460" d="M106 1159l97-2 262 293-160 2z"/><glyph unicode="µ" horiz-adv-x="1140" d="M49 1124h113V-428h131V39q33-27 94.5-45.5T526-25q123 0 207 56.5T858 193l2-193h115v1133H846V893l-209 231h160v9H627l-11 12 207 207h-67l-191-193v357h-53v-383l-76 247h-35l-63-221-64 221h-34l-76-247H49v-9zm144 9l65 219 59-219H193zm98-705v696h221V891h53v233h4l207-233h70V477q0-86-22.5-158.5t-62.5-124-96.5-80T541 86q-123 0-186.5 90T291 428zm63 705l64 219 63-219H354z"/><glyph unicode="¶" horiz-adv-x="1226" d="M96 1057q0-88 31-162t87-126 135-82 173-30v-878h129v1542h275V-221l129 2 2 1651H547q-102 0-185-26t-142.5-75-91.5-118.5T96 1057z"/><glyph unicode="¸" horiz-adv-x="458" d="M18-334q35-16 89.5-31.5T231-381q104 0 159.5 37T446-231q0 53-43 90t-102 37l-72-9 47 138h-55l-65-199 80 8q37 0 59-19.5t22-54.5q0-37-27.5-58T217-319q-31 0-61.5 8t-56 18-43 19.5T33-260z"/><glyph unicode="¹" horiz-adv-x="737" d="M164 1282l51-57 154 121V569h94l-2 873h-82z"/><glyph unicode="º" horiz-adv-x="739" d="M43 1149q0-80 23.5-145.5T134 892t105.5-71.5T377 795t137 25.5T618.5 892t67 111.5T709 1149t-23.5 145.5-67 111.5-104.5 71.5-137 25.5-137.5-25.5T134 1406t-67.5-111.5T43 1149zm96 0q0 129 63.5 209t174.5 80q106 0 170.5-80t64.5-209-64.5-209T377 860q-111 0-174.5 80T139 1149z"/><glyph unicode="»" horiz-adv-x="1132" d="M186 135l121-2 279 410 6 10-285 420-121-2 271-418zm357 0l121-2 278 410 6 10-284 420-121-2 270-418z"/><glyph unicode="¼" horiz-adv-x="1708" d="M154 1282l51-57 153 121V569h95l-2 873h-82zM315-45h115l840 1522h-115zm570 246h450V0h92v201h140v73h-140v598h-118L885 285v-84zm86 73l364 517V274H971z"/><glyph unicode="½" horiz-adv-x="1708" d="M131 1282l51-57 154 121V569h94l-2 873h-82zM266-45h115l840 1522h-115zm758 45h569v76h-452l258 262q18 18 48 53t57.5 79 48 93 20.5 96q0 100-75 162t-200 62q-37 0-75.5-8.5T1149 855t-58.5-21.5T1061 819l16-78q8 6 29.5 17.5t52.5 22 68 18.5 78 8q70 0 117.5-45t47.5-111q0-33-13-68.5t-32.5-68.5-42-61.5T1341 406L1024 76V0z"/><glyph unicode="¾" horiz-adv-x="1708" d="M113 600q18-8 79.5-23.5T340 561q156 0 251 67.5T686 813q0 94-53 150.5T485 1026q88 16 143.5 73.5T684 1235q0 104-80 160.5T389 1452q-82 0-146.5-17.5T158 1407l10-80q23 12 81 30.5t132 18.5q92 0 151.5-41t59.5-100q0-92-79-133t-220-41h-43v-76h84q129 0 193.5-39T592 821t-67.5-136T346 635q-86 0-146.5 18.5T123 682zM459-45h114l840 1522h-115zm489 246h451V0h92v201h139v73h-139v598h-119L948 285v-84zm86 73l365 517V274h-365z"/><glyph unicode="¿" horiz-adv-x="1028" d="M156-39q0-80 23.5-147.5T252-303t125-77 180-28q37 0 79 5.5t82 14.5 74.5 19.5T850-348l-8 127q-23-10-55.5-21.5T716-263t-78-15.5-75-6.5q-129 0-198.5 67.5T295-37q0 94 37 168t88 123q109 106 161 202.5T633 657v45H504v-45q0-84-41-161.5T326 319q-27-27-56.5-61.5T214 179t-42-98-16-120zm329 916h164v172H485V877z"/><glyph unicode="À" horiz-adv-x="1368" d="M29 0h137l153 387h717L1192 0h143L772 1432H612zm344 510l309 788 307-788H373zm76 1274l260-293 94 2-195 293z"/><glyph unicode="Á" horiz-adv-x="1368" d="M29 0h137l153 387h717L1192 0h143L772 1432H612zm344 510l309 788 307-788H373zm186 983l96-2 263 293-160 2z"/><glyph unicode="Â" horiz-adv-x="1368" d="M29 0h137l153 387h717L1192 0h143L772 1432H612zm344 510l309 788 307-788H373zm37 981h92l184 207 182-207h93l-193 295H604z"/><glyph unicode="Ã" horiz-adv-x="1368" d="M29 0h137l153 387h717L1192 0h143L772 1432H612zm344 510l309 788 307-788H373zm35 1030l71-2q20 45 38 59.5t50 14.5q45 0 113-29 66-27 121-27 66 0 108 53.5t58 129.5l-72 2q-20-45-37.5-59.5T805 1667q-47 0-113 27-70 29-119 28-66 0-107.5-53T408 1540z"/><glyph unicode="Ä" horiz-adv-x="1368" d="M29 0h137l153 387h717L1192 0h143L772 1432H612zm344 510l309 788 307-788H373zm59 1046h152v173H432v-173zm350 0h152v173H782v-173z"/><glyph unicode="Å" horiz-adv-x="1368" d="M29 0h137l153 387h717L1192 0h143L772 1432H612zm344 510l309 788 307-788H373zm116 1167q0-82 57.5-139t139.5-57q39 0 75 15t62.5 42 42 62.5T881 1677t-15.5 77-42 62.5-62.5 42-75 15.5q-82 0-139.5-57.5T489 1677zm76 0q0 51 35 86t86 35q49 0 84-34.5t35-86.5q0-51-35-86t-84-35q-51 0-86 35t-35 86z"/><glyph unicode="Æ" horiz-adv-x="1824" d="M-4 0h160l239 385h582V0h719v123h-578v553h524v123h-524v510h430v123H893L6 12zm473 508l508 811V508H469z"/><glyph unicode="Ç" horiz-adv-x="1372" d="M115 715q0-158 45-288t128-225.5T489.5 49 756-20l-51-154 79 8q37 0 59.5-19.5T866-240q0-37-27.5-58T766-319q-31 0-61.5 8t-56 18-43 19.5T582-260l-15-74q35-16 89.5-31.5T780-381q104 0 159.5 37T995-231q0 53-43 90t-102 37l-72-9 31 88h27q98 0 183 16.5T1171 45l-12 119q-53-37-142-51.5T834 98q-133 0-240 43T411.5 265 296 459.5 256 715q0 141 41 254.5T413.5 1164t182 125 238.5 44q88 0 172-15t151-50l14 129q-59 27-145 43t-197 16q-160 0-291.5-53t-225-151.5T167 1017t-52-302z"/><glyph unicode="È" horiz-adv-x="1026" d="M176 0h727v123H317v553h533v123H317v510h439v123H176V0zm100 1784l261-293 94 2-195 293z"/><glyph unicode="É" horiz-adv-x="1026" d="M176 0h727v123H317v553h533v123H317v510h439v123H176V0zm211 1493l96-2 262 293-159 2z"/><glyph unicode="Ê" horiz-adv-x="1026" d="M176 0h727v123H317v553h533v123H317v510h439v123H176V0zm62 1491h92l184 207 182-207h92l-192 295H432z"/><glyph unicode="Ë" horiz-adv-x="1026" d="M176 0h727v123H317v553h533v123H317v510h439v123H176V0zm84 1556h152v173H260v-173zm350 0h152v173H610v-173z"/><glyph unicode="Ì" horiz-adv-x="454" d="M-10 1784l260-293 94 2-194 293zM158 0h139v1432H158V0z"/><glyph unicode="Í" horiz-adv-x="454" d="M100 1493l97-2 262 293-160 2zM158 0h139v1432H158V0z"/><glyph unicode="Î" horiz-adv-x="454" d="M-49 1491h92l184 207 183-207h92l-193 295H145zM158 0h139v1432H158V0z"/><glyph unicode="Ï" horiz-adv-x="454" d="M-27 1556h152v173H-27v-173zM158 0h139v1432H158V0zm166 1556h151v173H324v-173z"/><glyph unicode="Ð" horiz-adv-x="1370" d="M25 674h141V0h262q391 0 601 181t210 534q0 352-180 532t-531 185l-362 4V797H25V674zm282-551v551h436v123H307v512h199q592 0 592-594 0-301-170-446.5T420 123H307z"/><glyph unicode="Ñ" horiz-adv-x="1368" d="M158 0h139v1247L1024 0h190v1432h-139V164L336 1432H158V0zm245 1540l72-2q20 45 37.5 59.5T563 1612q45 0 113-29 66-27 121-27 66 0 108 53.5t58 129.5l-72 2q-20-45-37.5-59.5T801 1667q-47 0-113 27-70 29-119 28-66 0-107.5-53T403 1540z"/><glyph unicode="Ò" horiz-adv-x="1484" d="M113 715q0-170 44-306.5T281.5 176 480 27.5 745-25t265 52.5T1209 176t125 232.5 44 306.5-44 307-125 233.5-198.5 148.5-265.5 52q-147 0-265-52t-198.5-148.5T157 1022t-44-307zm141 0q0 135 36 248.5T390.5 1159 545 1287t200 46q111 0 201-46t154.5-128T1201 963.5t36-248.5-36-249-100.5-195T946 144 745 98t-200.5 46-154 127T290 466t-36 249zm252 1069l260-293 94 2-194 293z"/><glyph unicode="Ó" horiz-adv-x="1484" d="M113 715q0-170 44-306.5T281.5 176 480 27.5 745-25t265 52.5T1209 176t125 232.5 44 306.5-44 307-125 233.5-198.5 148.5-265.5 52q-147 0-265-52t-198.5-148.5T157 1022t-44-307zm141 0q0 135 36 248.5T390.5 1159 545 1287t200 46q111 0 201-46t154.5-128T1201 963.5t36-248.5-36-249-100.5-195T946 144 745 98t-200.5 46-154 127T290 466t-36 249zm362 778l97-2 262 293-160 2z"/><glyph unicode="Ô" horiz-adv-x="1484" d="M113 715q0-170 44-306.5T281.5 176 480 27.5 745-25t265 52.5T1209 176t125 232.5 44 306.5-44 307-125 233.5-198.5 148.5-265.5 52q-147 0-265-52t-198.5-148.5T157 1022t-44-307zm141 0q0 135 36 248.5T390.5 1159 545 1287t200 46q111 0 201-46t154.5-128T1201 963.5t36-248.5-36-249-100.5-195T946 144 745 98t-200.5 46-154 127T290 466t-36 249zm213 776h92l184 207 183-207h92l-193 295H662z"/><glyph unicode="Õ" horiz-adv-x="1484" d="M113 715q0-170 44-306.5T281.5 176 480 27.5 745-25t265 52.5T1209 176t125 232.5 44 306.5-44 307-125 233.5-198.5 148.5-265.5 52q-147 0-265-52t-198.5-148.5T157 1022t-44-307zm141 0q0 135 36 248.5T390.5 1159 545 1287t200 46q111 0 201-46t154.5-128T1201 963.5t36-248.5-36-249-100.5-195T946 144 745 98t-200.5 46-154 127T290 466t-36 249zm211 825l72-2q20 45 37.5 59.5T625 1612q45 0 112-29 66-27 121-27 66 0 108 53.5t58 129.5l-72 2q-20-45-37.5-59.5T862 1667q-47 0-112 27-70 29-119 28-66 0-108-53t-58-129z"/><glyph unicode="Ö" horiz-adv-x="1484" d="M113 715q0-170 44-306.5T281.5 176 480 27.5 745-25t265 52.5T1209 176t125 232.5 44 306.5-44 307-125 233.5-198.5 148.5-265.5 52q-147 0-265-52t-198.5-148.5T157 1022t-44-307zm141 0q0 135 36 248.5T390.5 1159 545 1287t200 46q111 0 201-46t154.5-128T1201 963.5t36-248.5-36-249-100.5-195T946 144 745 98t-200.5 46-154 127T290 466t-36 249zm235 841h152v173H489v-173zm351 0h151v173H840v-173z"/><glyph unicode="×" horiz-adv-x="1425" d="M143 150L246 47l370 371L987 47l103 103-371 370 371 371-3 2 21 18-193 193 5 2 362-21 57 60-364 16 133 133-8 6-139-139-19 2v338l-55-55v-313l-293 292-43-43 315-315h-2l-264 143-29-30 131-234-235 131-29-28 142-267-62-61-272 272-103-102 371-371zm334 886l228-129-101-102zm49-323l346 348 93-90-349-348zm84 456l230-129-103-102z"/><glyph unicode="Ø" horiz-adv-x="1484" d="M72 25l73-74 166 192Q471-25 745-25q147 0 265 52.5T1209 176t125 232.5 44 306.5q0 311-139 499l180 207-73 74-175-201q-154 162-426 162-147 0-265-52t-198.5-148.5T157 1022t-44-307q0-309 131-492zm182 690q0 135 36 248.5T390.5 1159 545 1287t200 46q205 0 332-147L344 338q-90 150-90 377zm152-463l735 848q96-152 96-385 0-135-36-249t-100.5-195T946 144 745 98q-209 0-339 154z"/><glyph unicode="Ù" horiz-adv-x="1366" d="M166 489q0-117 37-212t104.5-162.5T471 11t215-36q117 0 212 36t162.5 103.5 104.5 163 37 211.5v943h-139V494q0-90-27.5-163t-77-124-119-80T684 98q-174 0-275.5 106.5T307 498v934H166V489zm283 1295l260-293 94 2-195 293z"/><glyph unicode="Ú" horiz-adv-x="1366" d="M166 489q0-117 37-212t104.5-162.5T471 11t215-36q117 0 212 36t162.5 103.5 104.5 163 37 211.5v943h-139V494q0-90-27.5-163t-77-124-119-80T684 98q-174 0-275.5 106.5T307 498v934H166V489zm393 1004l96-2 263 293-160 2z"/><glyph unicode="Û" horiz-adv-x="1366" d="M166 489q0-117 37-212t104.5-162.5T471 11t215-36q117 0 212 36t162.5 103.5 104.5 163 37 211.5v943h-139V494q0-90-27.5-163t-77-124-119-80T684 98q-174 0-275.5 106.5T307 498v934H166V489zm244 1002h92l184 207 182-207h93l-193 295H604z"/><glyph unicode="Ü" horiz-adv-x="1366" d="M166 489q0-117 37-212t104.5-162.5T471 11t215-36q117 0 212 36t162.5 103.5 104.5 163 37 211.5v943h-139V494q0-90-27.5-163t-77-124-119-80T684 98q-174 0-275.5 106.5T307 498v934H166V489zm266 1067h152v173H432v-173zm350 0h152v173H782v-173z"/><glyph unicode="Ý" horiz-adv-x="1251" d="M25 1432l532-824V0h139v606l529 826h-154L627 729l-439 703H25zm477 61l96-2 262 293-160 2z"/><glyph unicode="Þ" horiz-adv-x="1028" d="M174 0h141v352h207q100 0 183 29t142.5 82T940 590t33 164q0 197-115 304t-323 107H315v267H174V0zm141 477v565h226q141 0 217-69.5T834 768q0-154-92.5-222.5T459 477H315z"/><glyph unicode="ß" d="M162 0h129v1055q0 117 22.5 193.5T375 1370t89 62.5 105 17.5q49 0 93.5-17.5t79-52 55-86T817 1176q0-68-21.5-126.5T734 950t-94-64.5T522 862h-39V752h37q375 0 375-310 0-74-19.5-137T817 196t-95-73-130-27q-53 0-98 12.5T424 137l-8-121q18-8 65-19t105-11q111 0 194.5 35.5t141 97 87 146.5 29.5 184q0 154-89 254T682 821q76 16 129 52t86 84.5 47 105.5 14 119q0 172-103 275.5T573 1561q-92 0-167.5-28t-130-84-84-142-29.5-203V0z"/><glyph unicode="à" horiz-adv-x="1024" d="M82 309q0-147 89-241.5T420-27q92 0 182 41t160 152V0l117 2 2 12q2 13 0 35-2 25-2 55v680q0 184-92.5 278.5T514 1157q-55 0-112.5-14.5T296 1110t-84-37.5-48-28.5l41-86q61 41 143 65t160 24q117 0 179.5-63.5T750 782V453q0-164-77-265.5T444 86q-117 0-169 59.5T223 309q0 123 105.5 191.5T649 573q2 0 2 17v37q0 23-1 40l-1 17h-14q-270 0-411.5-97.5T82 309zm194 1141l261-293 94 2-195 293z"/><glyph unicode="á" horiz-adv-x="1024" d="M82 309q0-147 89-241.5T420-27q92 0 182 41t160 152V0l117 2 2 12q2 13 0 35-2 25-2 55v680q0 184-92.5 278.5T514 1157q-55 0-112.5-14.5T296 1110t-84-37.5-48-28.5l41-86q61 41 143 65t160 24q117 0 179.5-63.5T750 782V453q0-164-77-265.5T444 86q-117 0-169 59.5T223 309q0 123 105.5 191.5T649 573q2 0 2 17v37q0 23-1 40l-1 17h-14q-270 0-411.5-97.5T82 309zm305 850l96-2 262 293-159 2z"/><glyph unicode="â" horiz-adv-x="1024" d="M82 309q0-147 89-241.5T420-27q92 0 182 41t160 152V0l117 2 2 12q2 13 0 35-2 25-2 55v680q0 184-92.5 278.5T514 1157q-55 0-112.5-14.5T296 1110t-84-37.5-48-28.5l41-86q61 41 143 65t160 24q117 0 179.5-63.5T750 782V453q0-164-77-265.5T444 86q-117 0-169 59.5T223 309q0 123 105.5 191.5T649 573q2 0 2 17v37q0 23-1 40l-1 17h-14q-270 0-411.5-97.5T82 309zm156 848h92l184 207 182-207h92l-192 295H432z"/><glyph unicode="ã" horiz-adv-x="1024" d="M82 309q0-147 89-241.5T420-27q92 0 182 41t160 152V0l117 2 2 12q2 13 0 35-2 25-2 55v680q0 184-92.5 278.5T514 1157q-55 0-112.5-14.5T296 1110t-84-37.5-48-28.5l41-86q61 41 143 65t160 24q117 0 179.5-63.5T750 782V453q0-164-77-265.5T444 86q-117 0-169 59.5T223 309q0 123 105.5 191.5T649 573q2 0 2 17v37q0 23-1 40l-1 17h-14q-270 0-411.5-97.5T82 309zm154 897l71-2q20 45 37.5 59.5T395 1278q45 0 113-29 66-27 121-26 66 0 108 53t58 129l-72 2q-20-45-37.5-59.5T633 1333q-47 0-113 27-70 29-119 29-66 0-107.5-53.5T236 1206z"/><glyph unicode="ä" horiz-adv-x="1024" d="M82 309q0-147 89-241.5T420-27q92 0 182 41t160 152V0l117 2 2 12q2 13 0 35-2 25-2 55v680q0 184-92.5 278.5T514 1157q-55 0-112.5-14.5T296 1110t-84-37.5-48-28.5l41-86q61 41 143 65t160 24q117 0 179.5-63.5T750 782V453q0-164-77-265.5T444 86q-117 0-169 59.5T223 309q0 123 105.5 191.5T649 573q2 0 2 17v37q0 23-1 40l-1 17h-14q-270 0-411.5-97.5T82 309zm178 914h152v172H260v-172zm350 0h152v172H610v-172z"/><glyph unicode="å" horiz-adv-x="1024" d="M82 309q0-147 89-241.5T420-27q92 0 182 41t160 152V0l117 2 2 12q2 13 0 35-2 25-2 55v680q0 328-289 369 59 25 89 72t30 108q0 41-15.5 77t-42 62.5-62.5 42-75 15.5q-82 0-139.5-57.5T317 1333q0-61 32-109t91-73q-47-8-92-22.5t-83-31-64.5-30.5-36.5-23l41-86q61 41 143 65t160 24q117 0 179.5-63.5T750 782V453q0-164-77-265.5T444 86q-117 0-169 59.5T223 309q0 123 105.5 191.5T649 573q2 0 2 17v37q0 23-1 40l-1 17h-14q-270 0-411.5-97.5T82 309zm311 1024q0 51 35 86t86 35q49 0 84-35t35-86-35-86-84-35q-51 0-86 35t-35 86z"/><glyph unicode="æ" horiz-adv-x="1712" d="M96 309q0-147 85-241.5T426-27q147 0 250.5 59.5T831 190q31-59 72-99t88-66.5 99.5-38T1192-25q51 0 104.5 9.5t99.5 24 84 33.5 60 40l-2 129q-10-14-40-35.5t-69.5-41-87-34T1249 86q-174 0-268 129-82 113-92 315h731l-2 52q-10 270-107.5 422.5T1208 1157q-111 0-195.5-46T860 967q-18 41-43.5 75.5t-65.5 60-94.5 40T528 1157q-55 0-105-8t-92-20.5-71-25.5-41-22V958q61 41 143 65t160 24q117 0 179.5-73T764 778l1-52q1-52-4-130t-21.5-168T689 261t-89-127-141-48q-117 4-169 61.5T238 309q0 123 99 193.5T653 573l1 29 1 53v29h-6q-270 0-411.5-97.5T96 309zm793 332q14 166 84 272 90 133 239 134 123 0 193-108t74-298H889z"/><glyph unicode="ç" horiz-adv-x="917" d="M84 567q0-125 30.5-227t88-179T342 38t184-58l-51-154 80 8q37 0 59.5-19.5T637-240q0-37-27.5-58T537-319q-31 0-62 8t-56.5 18-43 19.5T352-260l-14-74q35-16 89-31.5T551-381q104 0 159.5 37T766-231q0 53-43 90t-102 37l-72-9 31 88h12q104-2 165.5 23T854 53l-12 119q-6-10-26.5-24.5t-51.5-28T694 96t-78-10q-90 0-161.5 36T332 222.5 253 376t-28 197q0 106 28 194.5t80 150 125.5 95.5 166.5 34q33 0 66.5-7.5t63-16.5 54.5-18.5 37-15.5l12 121q-43 16-108.5 31.5T606 1157q-117 0-213-43T228.5 993 122 806.5 84 567z"/><glyph unicode="è" horiz-adv-x="1030" d="M84 567q0-287 120-439.5T559-25q45 0 101.5 15.5t109.5 38T866.5 77t63.5 46l-64 88q-10-14-39.5-35.5t-69.5-41-87-34T580 86q-172 0-267 129-82 113-92 315h723l2 52q10 272-101.5 423.5T518 1157q-94 0-174-45T207 988t-90-186.5T84 567zm137 74q14 166 84 272 90 133 238 134 123 0 190.5-108T805 641H221zm62 809l260-293 94 2-195 293z"/><glyph unicode="é" horiz-adv-x="1030" d="M84 567q0-287 120-439.5T559-25q45 0 101.5 15.5t109.5 38T866.5 77t63.5 46l-64 88q-10-14-39.5-35.5t-69.5-41-87-34T580 86q-172 0-267 129-82 113-92 315h723l2 52q10 272-101.5 423.5T518 1157q-94 0-174-45T207 988t-90-186.5T84 567zm137 74q14 166 84 272 90 133 238 134 123 0 190.5-108T805 641H221zm172 518l96-2 263 293-160 2z"/><glyph unicode="ê" horiz-adv-x="1030" d="M84 567q0-287 120-439.5T559-25q45 0 101.5 15.5t109.5 38T866.5 77t63.5 46l-64 88q-10-14-39.5-35.5t-69.5-41-87-34T580 86q-172 0-267 129-82 113-92 315h723l2 52q10 272-101.5 423.5T518 1157q-94 0-174-45T207 988t-90-186.5T84 567zm137 74q14 166 84 272 90 133 238 134 123 0 190.5-108T805 641H221zm23 516h92l184 207 182-207h93l-193 295H438z"/><glyph unicode="ë" horiz-adv-x="1030" d="M84 567q0-287 120-439.5T559-25q45 0 101.5 15.5t109.5 38T866.5 77t63.5 46l-64 88q-10-14-39.5-35.5t-69.5-41-87-34T580 86q-172 0-267 129-82 113-92 315h723l2 52q10 272-101.5 423.5T518 1157q-94 0-174-45T207 988t-90-186.5T84 567zm137 74q14 166 84 272 90 133 238 134 123 0 190.5-108T805 641H221zm45 582h152v172H266v-172zm350 0h152v172H616v-172z"/><glyph unicode="ì" horiz-adv-x="454" d="M-8 1450l260-293 94 2-194 293zM162 0h127v1133H162V0z"/><glyph unicode="í" horiz-adv-x="454" d="M102 1159l97-2 262 293-160 2zM162 0h127v1133H162V0z"/><glyph unicode="î" horiz-adv-x="454" d="M-47 1157h92l184 207 183-207h92l-193 295H147zM162 0h127v1133H162V0z"/><glyph unicode="ï" horiz-adv-x="454" d="M-25 1223h152v172H-25v-172zM162 0h127v1133H162V0zm164 1223h151v172H326v-172z"/><glyph unicode="ð" horiz-adv-x="1142" d="M82 561q0-133 35-241.5T215.5 134 370 15t205-42q244 0 368 174.5T1067 637q0 383-188 627-37 47-101 104l187 115-64 80-213-129q-127 94-377 127l-26-99q211-35 299-92l-217-131 69-82 246 152q23-18 38-33.5t25-26.5q141-154 152-256-70 86-149.5 125T575 1157q-113 0-203.5-44t-155-123T117 801.5 82 561zm141-2q0 109 23.5 198T316 910.5 426.5 1011t148.5 36q76 0 140.5-37T827 907.5 900 753t26-194q0-98-28-185t-75-151.5T712.5 121 575 84q-78 0-142 36t-111.5 99.5-73 150.5T223 559z"/><glyph unicode="ñ" horiz-adv-x="1140" d="M160 0h129v637q0 92 21.5 169T373 936t99 83 132 30q113 0 179.5-89.5T850 723V0h129v717q0 211-90 325.5T625 1157q-125 0-212-52T276 936v197H160V0zm127 1206l71-2q20 45 38 59.5t50 14.5q45 0 113-29 66-27 121-26 66 0 108 53t58 129l-72 2q-20-45-37.5-59.5T684 1333q-47 0-113 27-70 29-118 29-66 0-108-53.5T287 1206z"/><glyph unicode="ò" horiz-adv-x="1142" d="M82 567q0-133 35-241.5T215.5 139 370 18t201-43q111 0 202 43t154.5 121 98.5 186.5 35 241.5q0 131-35 241t-98.5 186.5T773 1114t-202 43-201.5-43-154-119.5T117 808 82 567zm141 0q0 104 24.5 192.5t71 152 110 99.5 142.5 36q80 0 143.5-36T824 911.5t71-152T920 567q0-106-25-195t-71-152.5T714.5 121 571 86t-143 35-109.5 98.5-71 152.5T223 567zm111 883l260-293 94 2-194 293z"/><glyph unicode="ó" horiz-adv-x="1142" d="M82 567q0-133 35-241.5T215.5 139 370 18t201-43q111 0 202 43t154.5 121 98.5 186.5 35 241.5q0 131-35 241t-98.5 186.5T773 1114t-202 43-201.5-43-154-119.5T117 808 82 567zm141 0q0 104 24.5 192.5t71 152 110 99.5 142.5 36q80 0 143.5-36T824 911.5t71-152T920 567q0-106-25-195t-71-152.5T714.5 121 571 86t-143 35-109.5 98.5-71 152.5T223 567zm221 592l97-2 262 293-160 2z"/><glyph unicode="ô" horiz-adv-x="1142" d="M82 567q0-133 35-241.5T215.5 139 370 18t201-43q111 0 202 43t154.5 121 98.5 186.5 35 241.5q0 131-35 241t-98.5 186.5T773 1114t-202 43-201.5-43-154-119.5T117 808 82 567zm141 0q0 104 24.5 192.5t71 152 110 99.5 142.5 36q80 0 143.5-36T824 911.5t71-152T920 567q0-106-25-195t-71-152.5T714.5 121 571 86t-143 35-109.5 98.5-71 152.5T223 567zm72 590h92l184 207 183-207h92l-193 295H489z"/><glyph unicode="õ" horiz-adv-x="1142" d="M82 567q0-133 35-241.5T215.5 139 370 18t201-43q111 0 202 43t154.5 121 98.5 186.5 35 241.5q0 131-35 241t-98.5 186.5T773 1114t-202 43-201.5-43-154-119.5T117 808 82 567zm141 0q0 104 24.5 192.5t71 152 110 99.5 142.5 36q80 0 143.5-36T824 911.5t71-152T920 567q0-106-25-195t-71-152.5T714.5 121 571 86t-143 35-109.5 98.5-71 152.5T223 567zm70 639l72-2q20 45 37.5 59.5T453 1278q45 0 112-29 66-27 121-26 66 0 108 53t58 129l-72 2q-20-45-37.5-59.5T690 1333q-47 0-112 27-70 29-119 29-66 0-108-53.5T293 1206z"/><glyph unicode="ö" horiz-adv-x="1142" d="M82 567q0-133 35-241.5T215.5 139 370 18t201-43q111 0 202 43t154.5 121 98.5 186.5 35 241.5q0 131-35 241t-98.5 186.5T773 1114t-202 43-201.5-43-154-119.5T117 808 82 567zm141 0q0 104 24.5 192.5t71 152 110 99.5 142.5 36q80 0 143.5-36T824 911.5t71-152T920 567q0-106-25-195t-71-152.5T714.5 121 571 86t-143 35-109.5 98.5-71 152.5T223 567zm94 656h152v172H317v-172zm351 0h151v172H668v-172z"/><glyph unicode="÷" horiz-adv-x="1228" d="M94 451h1039v139H94V451zM530 29h168v172H530V29zm0 809h168v172H530V838z"/><glyph unicode="ø" horiz-adv-x="1142" d="M43-20l70-64L256 94Q373-25 571-25q111 0 202 43t154.5 121 98.5 186.5 35 241.5q0 242-107 391l152 189-70 65-145-180q-119 125-320 125-111 0-201.5-43t-154-119.5T117 808 82 567q0-248 111-401zm180 587q0 104 24.5 192.5t71 152 110 99.5 142.5 36q147 0 238-117L283 276q-59 115-60 291zm115-372l524 651q57-106 58-279 0-106-25-195t-71-152.5T714.5 121 571 86q-143 0-233 109z"/><glyph unicode="ù" horiz-adv-x="1140" d="M160 428q0-223 89-338T524-25q123 0 209 56.5T862 193l2-193h115v1133H850V477q0-86-21.5-158.5t-62.5-124-98.5-80T541 86q-123 0-187.5 90T289 428v705H160V428zm174 1022l260-293 94 2-194 293z"/><glyph unicode="ú" horiz-adv-x="1140" d="M160 428q0-223 89-338T524-25q123 0 209 56.5T862 193l2-193h115v1133H850V477q0-86-21.5-158.5t-62.5-124-98.5-80T541 86q-123 0-187.5 90T289 428v705H160V428zm284 731l97-2 262 293-160 2z"/><glyph unicode="û" horiz-adv-x="1140" d="M160 428q0-223 89-338T524-25q123 0 209 56.5T862 193l2-193h115v1133H850V477q0-86-21.5-158.5t-62.5-124-98.5-80T541 86q-123 0-187.5 90T289 428v705H160V428zm135 729h92l184 207 183-207h92l-193 295H489z"/><glyph unicode="ü" horiz-adv-x="1140" d="M160 428q0-223 89-338T524-25q123 0 209 56.5T862 193l2-193h115v1133H850V477q0-86-21.5-158.5t-62.5-124-98.5-80T541 86q-123 0-187.5 90T289 428v705H160V428zm157 795h152v172H317v-172zm351 0h151v172H668v-172z"/><glyph unicode="ý" horiz-adv-x="913" d="M12 1133L383 12l-39-149q-25-94-68-145.5T168-334l-94 17-11-109q16-4 52.5-10t85.5-6 91 25.5 74.5 66.5 57.5 92 43 104l426 1287H754L446 182l-296 951H12zm320 26l96-2 262 293-160 2z"/><glyph unicode="þ" horiz-adv-x="1144" d="M147-430h129v604Q327 65 418.5 20T604-25q104 0 186 42t138.5 119 86 186.5T1044 567q0 283-109.5 436.5T604 1157q-88 0-171-45T276 942v594H147V-430zm129 995v2q0 106 24 195.5t65 152 99 97.5 126 35q74 0 132-34t98-97.5T881.5 764 903 567q0-223-80-352T590 86q-72 0-129.5 36t-98 99.5T299 373t-23 192z"/><glyph unicode="ÿ" horiz-adv-x="913" d="M12 1133L383 12l-39-149q-25-94-68-145.5T168-334l-94 17-11-109q16-4 52.5-10t85.5-6 91 25.5 74.5 66.5 57.5 92 43 104l426 1287H754L446 182l-296 951H12zm193 90h151v172H205v-172zm350 0h152v172H555v-172z"/><glyph unicode="Œ" horiz-adv-x="1832" d="M111 721q0-172 38.5-308.5T262 181 444.5 36 692-14q133 0 172 8 23 4 52.5 5T987 0h721v123h-582v553h529v123h-529v510h557v123l-696-7q-61 0-128.5 10.5T692 1446q-137 0-245.5-51.5T263 1249t-113.5-228T111 721zm141-6q0 289 118 447.5T721 1321q53 0 101-3t84-8 57.5-10.5T985 1288V141q0-14-78-22t-188-8q-233 0-350 156.5T252 715z"/><glyph unicode="œ" horiz-adv-x="1830" d="M74 567q0-133 33.5-241.5t95-186.5T352 18t199-43q156 0 255.5 55.5T967 184q70-111 172-160t237-49q43 0 88 9.5t85 24 73 33.5 51 40l-2 129q-10-14-39.5-35.5t-69.5-41-87.5-34T1384 86q-172 0-266 129-82 113-92 315h725v52q0 270-104.5 422.5T1335 1157q-76 0-134-18.5t-103-49-78-72.5-57-87q-47 100-143.5 163.5T551 1157q-111 0-199-43T202.5 994.5t-95-186.5T74 567zm141 0q0 104 24.5 192.5t68.5 152 106.5 99.5 140.5 36 140.5-36T803 911.5t68.5-152T895 567q0-106-23.5-195T803 219.5 695.5 121 555 86t-140.5 35T308 219.5 239.5 372 215 567zm811 74q14 166 84 272 90 133 238 134 123 0 191.5-108t70.5-298h-584z"/><glyph unicode="Ÿ" horiz-adv-x="1251" d="M25 1432l532-824V0h139v606l529 826h-154L627 729l-439 703H25zm350 124h151v173H375v-173zm350 0h152v173H725v-173z"/><glyph unicode="ˆ" horiz-adv-x="466" d="M-43 1157h92l184 207 183-207h92l-193 295H152z"/><glyph unicode="˜" horiz-adv-x="462" d="M-51 1206l71-2q20 45 38 59.5t51 14.5q45 0 112-29 66-27 121-26 66 0 108 53t58 129l-72 2q-20-45-37.5-59.5T346 1333q-47 0-113 27-70 29-118 29-66 0-108-53.5T-51 1206z"/><glyph horiz-adv-x="937"/><glyph horiz-adv-x="1874"/><glyph horiz-adv-x="937"/><glyph horiz-adv-x="1874"/><glyph horiz-adv-x="624"/><glyph horiz-adv-x="468"/><glyph horiz-adv-x="312"/><glyph horiz-adv-x="312"/><glyph horiz-adv-x="234"/><glyph horiz-adv-x="374"/><glyph horiz-adv-x="104"/><glyph unicode="‐" horiz-adv-x="681" d="M14 481h512v142H14V481z"/><glyph unicode="‑" horiz-adv-x="681" d="M14 481h512v142H14V481z"/><glyph unicode="‒" horiz-adv-x="681" d="M14 481h512v142H14V481z"/><glyph unicode="–" horiz-adv-x="1024" d="M0 481h1026v142H0V481z"/><glyph unicode="—" horiz-adv-x="2048" d="M0 481h2050v142H0V481z"/><glyph unicode="‘" horiz-adv-x="571" d="M152 985h153l119 438-8 9H303z"/><glyph unicode="’" horiz-adv-x="571" d="M152 985h114l158 447H270L152 993v-8z"/><glyph unicode="‚" horiz-adv-x="573" d="M152-264v-8h114l158 446H270z"/><glyph unicode="“" horiz-adv-x="1136" d="M254 985h154l118 438-8 9H406zm360 0h154l119 438-8 9H766z"/><glyph unicode="”" horiz-adv-x="1136" d="M254 985h115l157 447H373L254 993v-8zm360 0h115l158 447H733L614 993v-8z"/><glyph unicode="„" horiz-adv-x="1136" d="M248-264v-8h114l158 446H367zm356 0v-8h115l158 446H723z"/><glyph unicode="•" horiz-adv-x="1028" d="M246 754q0-47 18.5-89t49-73 72.5-49.5 89-18.5 89 18.5 73 49.5 48 73 17 89-17 89-48 72.5-73 49-91 18.5q-47 0-88-18.5t-71.5-49-49-72.5-18.5-89z"/><glyph unicode="…" horiz-adv-x="2048" d="M260 0h168v172H260V0zm682 0h168v172H942V0zm682 0h168v172h-168V0z"/><glyph horiz-adv-x="374"/><glyph unicode="‹" horiz-adv-x="567" d="M80 553l285-420 122 2-272 418 272 418-122 2L86 563z"/><glyph unicode="›" horiz-adv-x="567" d="M80 135l121-2 278 410 6 10-284 420-121-2 270-418z"/><glyph horiz-adv-x="468"/><glyph unicode="€" horiz-adv-x="1372" d="M147 516h172q27-127 87.5-226.5t150.5-170T764 12t256-37q98 0 183 16.5T1356 45l-13 119q-53-37-142-51.5T1018 98q-217 0-360.5 110.5T465 516h760v117H444q-2 20-3 39.5t-1 42.5q0 78 13 149h772v119H485q63 166 200.5 258t332.5 92q88 0 172-15t151-50l15 129q-59 27-145.5 43t-196.5 16q-252 0-428-127T338 983H147V864h164q-12-72-12-149 0-20 1-41t3-41H147V516z"/><glyph unicode="™" horiz-adv-x="2027" d="M129 1333h266V582h131v751h269v99H129v-99zm844-751h131v741l282-741h91l286 741V582h131v850h-213l-247-658-250 658H973V582z"/><glyph unicode="◼" horiz-adv-x="1136" d="M0 0v1137h1137V0H0z"/></font>
</defs>
</svg>
